<svg id="Layer_1" data-name="Layer 1" xmlns="http://www.w3.org/2000/svg" viewBox="0 0 1080 1080"><defs><style>.cls-1,.cls-2,.cls-3,.cls-4{fill:#fff;}.cls-2{font-size:110px;}.cls-2,.cls-3{font-family:Poppins-SemiBold, Poppins;font-weight:600;}.cls-3{font-size:57.49px;letter-spacing:0.02em;}.cls-4{font-size:20px;font-family:FranklinGothic-BookItalic, Franklin Gothic Book;font-style:italic;letter-spacing:0.27em;}.cls-5{letter-spacing:0.26em;}.cls-6{letter-spacing:0.25em;}.cls-7{letter-spacing:0.27em;}.cls-8{letter-spacing:0.25em;}.cls-9{letter-spacing:0.27em;}</style></defs><path class="cls-1" d="M266.79,510.69A90.81,90.81,0,0,1,264.4,531a89.74,89.74,0,0,1,19.75-2.16,112.91,112.91,0,0,0,1.61-19.63A93.63,93.63,0,0,0,266.79,510.69Z"/><path class="cls-1" d="M284.17,496.53c-1.93-21.38-16.28-39.68-36.57-43.75-22.66-4.54-45.07,6.06-53.46,26.68-3.67,9.05-4.62,19.19-7.12,30.18-3.18.19-6.62.36-10.05.57-25.08,1.45-43.41,19-45.79,43.73-2.18,22.73,14,44.72,37.9,49.62a109.39,109.39,0,0,0,19.83,2.26,111.75,111.75,0,0,1,1.61-19.62,139,139,0,0,1-17.67-1.13c-15.42-1.9-24.68-15.93-23-31,1.56-14.32,13.31-24.86,28.31-25.34,3.86-.13,7.73,0,11.57-.09,13.1-.39,17.83-5.13,18.33-18.36.15-3.86-.12-7.73.15-11.57,1.14-17,13-28.61,28.83-28.47,16.53.14,28.21,12.23,28.74,29.75.07,2.31,0,4.64,0,6.95,0,1.25,0,2.51,0,3.75A90.81,90.81,0,0,1,263.4,531a70.28,70.28,0,0,1-24.87,39.31A68.21,68.21,0,0,1,210.25,584a91,91,0,0,0-2.37,20.27,91.33,91.33,0,0,0,35.21-14.65c23.16-15.85,35.87-36.4,40.06-60.85a112.91,112.91,0,0,0,1.61-19.63Q284.76,503,284.17,496.53Z"/><path class="cls-1" d="M343.49,561.06c-2.38,24.77-20.71,42.28-45.79,43.73-3.44.2-6.87.38-10.07.55-2.49,11-3.44,21.15-7.1,30.2-8.39,20.62-30.8,31.2-53.47,26.67-20.29-4.06-34.64-22.36-36.57-43.74q-.59-6.45-.58-12.65a111.75,111.75,0,0,1,1.61-19.62c4.19-24.46,16.88-45,40-60.85a91.22,91.22,0,0,1,35.23-14.66A90.81,90.81,0,0,1,264.4,531a68.53,68.53,0,0,0-28.26,13.77A70.32,70.32,0,0,0,211.25,584a91,91,0,0,0-2.37,20.27c0,1.25,0,2.5,0,3.76,0,2.31,0,4.62,0,6.94.52,17.53,12.2,29.61,28.73,29.76,15.86.13,27.69-11.49,28.84-28.47.26-3.84,0-7.72.15-11.58.48-13.22,5.23-18,18.32-18.35,3.85-.12,7.72,0,11.56-.09,15-.48,26.77-11,28.33-25.34,1.65-15.07-7.6-29.1-23-31a139.09,139.09,0,0,0-17.67-1.13,112.91,112.91,0,0,0,1.61-19.63,108.63,108.63,0,0,1,19.83,2.27C329.52,516.33,345.67,538.33,343.49,561.06Z"/><text class="cls-2" transform="translate(359.56 533.01)">Endurance</text><text class="cls-3" transform="translate(364.08 614.08)">Healthcare Services</text><text class="cls-4" transform="translate(431.25 660.75)">where co<tspan class="cls-5" x="120.04" y="0">m</tspan><tspan x="141.51" y="0">passiona</tspan><tspan class="cls-6" x="261.24" y="0">t</tspan><tspan class="cls-7" x="272.32" y="0">e care thri</tspan><tspan class="cls-8" x="417.87" y="0">v</tspan><tspan class="cls-9" x="431.83" y="0">es</tspan></text></svg>